<mxfile host="app.diagrams.net" agent="Mozilla/5.0 (X11; Ubuntu; Linux x86_64; rv:142.0) Gecko/20100101 Firefox/142.0" version="28.1.1">
  <diagram name="Page-1" id="STLg1fU_LXQ0Due33d5D">
    <mxGraphModel dx="1188" dy="1752" grid="1" gridSize="10" guides="1" tooltips="1" connect="1" arrows="1" fold="1" page="1" pageScale="1" pageWidth="827" pageHeight="1169" math="0" shadow="0">
      <root>
        <mxCell id="0" />
        <mxCell id="1" parent="0" />
        <mxCell id="kYOUvSsJLrCeEHnDtDb5-96" style="edgeStyle=orthogonalEdgeStyle;rounded=0;orthogonalLoop=1;jettySize=auto;html=1;exitX=1;exitY=0.5;exitDx=0;exitDy=0;entryX=0;entryY=0.5;entryDx=0;entryDy=0;" parent="1" edge="1">
          <mxGeometry relative="1" as="geometry">
            <mxPoint x="490" y="510" as="sourcePoint" />
          </mxGeometry>
        </mxCell>
        <mxCell id="U913wE_NcPpKhsggZSmQ-4" value="&lt;b&gt;Load Simulator&lt;/b&gt;" style="rounded=1;whiteSpace=wrap;html=1;dashed=1;dashPattern=8 8;strokeColor=default;strokeWidth=1;align=center;verticalAlign=top;arcSize=14;absoluteArcSize=1;fontFamily=Helvetica;fontSize=12;fontColor=default;fillColor=default;shadow=0;" parent="1" vertex="1">
          <mxGeometry x="220" width="720" height="870" as="geometry" />
        </mxCell>
        <mxCell id="kYOUvSsJLrCeEHnDtDb5-161" value="" style="group" parent="1" vertex="1" connectable="0">
          <mxGeometry x="430" y="800" width="340" height="60" as="geometry" />
        </mxCell>
        <mxCell id="kYOUvSsJLrCeEHnDtDb5-150" style="edgeStyle=orthogonalEdgeStyle;rounded=0;orthogonalLoop=1;jettySize=auto;html=1;exitX=1;exitY=0.5;exitDx=0;exitDy=0;entryX=0;entryY=0.5;entryDx=0;entryDy=0;" parent="kYOUvSsJLrCeEHnDtDb5-161" source="kYOUvSsJLrCeEHnDtDb5-80" target="kYOUvSsJLrCeEHnDtDb5-147" edge="1">
          <mxGeometry relative="1" as="geometry" />
        </mxCell>
        <mxCell id="kYOUvSsJLrCeEHnDtDb5-80" value="&lt;b&gt;Randomize&lt;/b&gt;&lt;br&gt;Stress duration&lt;br&gt;Sleep duration" style="shape=ellipse;html=1;dashed=0;whiteSpace=wrap;perimeter=ellipsePerimeter;" parent="kYOUvSsJLrCeEHnDtDb5-161" vertex="1">
          <mxGeometry x="80" width="120" height="60" as="geometry" />
        </mxCell>
        <mxCell id="kYOUvSsJLrCeEHnDtDb5-147" value="&lt;div&gt;&lt;b&gt;Randomize&amp;nbsp;&lt;/b&gt;&lt;br&gt;Worker Counts&lt;br&gt;Resources Sizes&lt;/div&gt;" style="shape=ellipse;html=1;dashed=0;whiteSpace=wrap;perimeter=ellipsePerimeter;" parent="kYOUvSsJLrCeEHnDtDb5-161" vertex="1">
          <mxGeometry x="220" width="120" height="60" as="geometry" />
        </mxCell>
        <mxCell id="kYOUvSsJLrCeEHnDtDb5-149" style="edgeStyle=orthogonalEdgeStyle;rounded=0;orthogonalLoop=1;jettySize=auto;html=1;exitX=1;exitY=0.5;exitDx=0;exitDy=0;entryX=0;entryY=0.5;entryDx=0;entryDy=0;" parent="kYOUvSsJLrCeEHnDtDb5-161" source="kYOUvSsJLrCeEHnDtDb5-148" target="kYOUvSsJLrCeEHnDtDb5-80" edge="1">
          <mxGeometry relative="1" as="geometry" />
        </mxCell>
        <mxCell id="kYOUvSsJLrCeEHnDtDb5-148" value="&lt;b&gt;Sleep&lt;/b&gt;" style="shape=ellipse;html=1;dashed=0;whiteSpace=wrap;perimeter=ellipsePerimeter;" parent="kYOUvSsJLrCeEHnDtDb5-161" vertex="1">
          <mxGeometry y="15" width="60" height="30" as="geometry" />
        </mxCell>
        <mxCell id="kYOUvSsJLrCeEHnDtDb5-163" style="edgeStyle=orthogonalEdgeStyle;rounded=0;orthogonalLoop=1;jettySize=auto;html=1;exitX=0.5;exitY=1;exitDx=0;exitDy=0;entryX=0;entryY=0.5;entryDx=0;entryDy=0;" parent="1" source="kYOUvSsJLrCeEHnDtDb5-71" target="kYOUvSsJLrCeEHnDtDb5-148" edge="1">
          <mxGeometry relative="1" as="geometry" />
        </mxCell>
        <mxCell id="kYOUvSsJLrCeEHnDtDb5-165" style="edgeStyle=orthogonalEdgeStyle;rounded=0;orthogonalLoop=1;jettySize=auto;html=1;exitX=1;exitY=0.5;exitDx=0;exitDy=0;entryX=0.5;entryY=1;entryDx=0;entryDy=0;" parent="1" source="kYOUvSsJLrCeEHnDtDb5-147" target="kYOUvSsJLrCeEHnDtDb5-77" edge="1">
          <mxGeometry relative="1" as="geometry" />
        </mxCell>
        <mxCell id="U913wE_NcPpKhsggZSmQ-5" value="" style="group" parent="1" vertex="1" connectable="0">
          <mxGeometry x="230" y="250" width="710" height="640" as="geometry" />
        </mxCell>
        <mxCell id="kYOUvSsJLrCeEHnDtDb5-71" value="&lt;b&gt;Serial Tests&lt;/b&gt;" style="rounded=1;whiteSpace=wrap;html=1;absoluteArcSize=1;arcSize=14;strokeWidth=1;dashed=1;dashPattern=8 8;verticalAlign=top;container=0;" parent="U913wE_NcPpKhsggZSmQ-5" vertex="1">
          <mxGeometry width="340" height="520" as="geometry" />
        </mxCell>
        <mxCell id="kYOUvSsJLrCeEHnDtDb5-67" value="&lt;b&gt;Process&amp;nbsp;Tests&lt;/b&gt;" style="html=1;dashed=0;whiteSpace=wrap;shadow=0;verticalAlign=top;fontSize=12;container=0;" parent="U913wE_NcPpKhsggZSmQ-5" vertex="1">
          <mxGeometry x="125" y="430" width="90" height="80" as="geometry" />
        </mxCell>
        <mxCell id="kYOUvSsJLrCeEHnDtDb5-68" style="edgeStyle=orthogonalEdgeStyle;rounded=0;orthogonalLoop=1;jettySize=auto;html=1;exitX=0.5;exitY=1;exitDx=0;exitDy=0;entryX=0.5;entryY=0;entryDx=0;entryDy=0;" parent="U913wE_NcPpKhsggZSmQ-5" source="kYOUvSsJLrCeEHnDtDb5-55" target="kYOUvSsJLrCeEHnDtDb5-67" edge="1">
          <mxGeometry relative="1" as="geometry" />
        </mxCell>
        <mxCell id="kYOUvSsJLrCeEHnDtDb5-55" value="&lt;div&gt;&lt;b&gt;Network Tests&lt;/b&gt;&lt;/div&gt;" style="html=1;dashed=0;whiteSpace=wrap;shadow=0;verticalAlign=top;fontSize=12;container=0;" parent="U913wE_NcPpKhsggZSmQ-5" vertex="1">
          <mxGeometry x="125" y="330" width="90" height="80" as="geometry" />
        </mxCell>
        <mxCell id="kYOUvSsJLrCeEHnDtDb5-57" style="edgeStyle=orthogonalEdgeStyle;rounded=0;orthogonalLoop=1;jettySize=auto;html=1;exitX=0.5;exitY=1;exitDx=0;exitDy=0;entryX=0.5;entryY=0;entryDx=0;entryDy=0;" parent="U913wE_NcPpKhsggZSmQ-5" source="kYOUvSsJLrCeEHnDtDb5-49" target="kYOUvSsJLrCeEHnDtDb5-55" edge="1">
          <mxGeometry relative="1" as="geometry" />
        </mxCell>
        <mxCell id="kYOUvSsJLrCeEHnDtDb5-49" value="&lt;b&gt;Disk I/O Tests&lt;/b&gt;" style="html=1;dashed=0;whiteSpace=wrap;shadow=0;verticalAlign=top;fontSize=12;container=0;" parent="U913wE_NcPpKhsggZSmQ-5" vertex="1">
          <mxGeometry x="10" y="230" width="320" height="80" as="geometry" />
        </mxCell>
        <mxCell id="kYOUvSsJLrCeEHnDtDb5-63" style="edgeStyle=orthogonalEdgeStyle;rounded=0;orthogonalLoop=1;jettySize=auto;html=1;exitX=0.5;exitY=1;exitDx=0;exitDy=0;entryX=0.5;entryY=0;entryDx=0;entryDy=0;" parent="U913wE_NcPpKhsggZSmQ-5" source="kYOUvSsJLrCeEHnDtDb5-40" target="kYOUvSsJLrCeEHnDtDb5-58" edge="1">
          <mxGeometry relative="1" as="geometry" />
        </mxCell>
        <mxCell id="kYOUvSsJLrCeEHnDtDb5-40" value="&lt;b&gt;CPU Tests&lt;/b&gt;" style="html=1;dashed=0;whiteSpace=wrap;shadow=0;verticalAlign=top;fontSize=12;container=0;" parent="U913wE_NcPpKhsggZSmQ-5" vertex="1">
          <mxGeometry x="10" y="30" width="320" height="80" as="geometry" />
        </mxCell>
        <mxCell id="kYOUvSsJLrCeEHnDtDb5-35" value="" style="edgeStyle=orthogonalEdgeStyle;rounded=0;orthogonalLoop=1;jettySize=auto;html=1;" parent="U913wE_NcPpKhsggZSmQ-5" source="kYOUvSsJLrCeEHnDtDb5-31" target="kYOUvSsJLrCeEHnDtDb5-32" edge="1">
          <mxGeometry relative="1" as="geometry" />
        </mxCell>
        <mxCell id="kYOUvSsJLrCeEHnDtDb5-31" value="General CPU Load" style="html=1;dashed=0;whiteSpace=wrap;container=0;" parent="U913wE_NcPpKhsggZSmQ-5" vertex="1">
          <mxGeometry x="20" y="52" width="60" height="50" as="geometry" />
        </mxCell>
        <mxCell id="kYOUvSsJLrCeEHnDtDb5-38" style="edgeStyle=orthogonalEdgeStyle;rounded=0;orthogonalLoop=1;jettySize=auto;html=1;exitX=1;exitY=0.5;exitDx=0;exitDy=0;entryX=0;entryY=0.5;entryDx=0;entryDy=0;" parent="U913wE_NcPpKhsggZSmQ-5" source="kYOUvSsJLrCeEHnDtDb5-32" target="kYOUvSsJLrCeEHnDtDb5-33" edge="1">
          <mxGeometry relative="1" as="geometry" />
        </mxCell>
        <mxCell id="kYOUvSsJLrCeEHnDtDb5-32" value="Cache Stress" style="html=1;dashed=0;whiteSpace=wrap;container=0;" parent="U913wE_NcPpKhsggZSmQ-5" vertex="1">
          <mxGeometry x="100" y="52" width="60" height="50" as="geometry" />
        </mxCell>
        <mxCell id="kYOUvSsJLrCeEHnDtDb5-39" style="edgeStyle=orthogonalEdgeStyle;rounded=0;orthogonalLoop=1;jettySize=auto;html=1;exitX=1;exitY=0.5;exitDx=0;exitDy=0;entryX=0;entryY=0.5;entryDx=0;entryDy=0;" parent="U913wE_NcPpKhsggZSmQ-5" source="kYOUvSsJLrCeEHnDtDb5-33" target="kYOUvSsJLrCeEHnDtDb5-34" edge="1">
          <mxGeometry relative="1" as="geometry" />
        </mxCell>
        <mxCell id="kYOUvSsJLrCeEHnDtDb5-33" value="Floating Point Stress" style="html=1;dashed=0;whiteSpace=wrap;container=0;" parent="U913wE_NcPpKhsggZSmQ-5" vertex="1">
          <mxGeometry x="180" y="52" width="60" height="50" as="geometry" />
        </mxCell>
        <mxCell id="kYOUvSsJLrCeEHnDtDb5-34" value="&lt;div&gt;Pipe Stress&lt;/div&gt;" style="html=1;dashed=0;whiteSpace=wrap;container=0;" parent="U913wE_NcPpKhsggZSmQ-5" vertex="1">
          <mxGeometry x="260" y="52" width="60" height="50" as="geometry" />
        </mxCell>
        <mxCell id="kYOUvSsJLrCeEHnDtDb5-50" style="edgeStyle=orthogonalEdgeStyle;rounded=0;orthogonalLoop=1;jettySize=auto;html=1;exitX=1;exitY=0.5;exitDx=0;exitDy=0;entryX=0;entryY=0.5;entryDx=0;entryDy=0;" parent="U913wE_NcPpKhsggZSmQ-5" source="kYOUvSsJLrCeEHnDtDb5-45" target="kYOUvSsJLrCeEHnDtDb5-46" edge="1">
          <mxGeometry relative="1" as="geometry" />
        </mxCell>
        <mxCell id="kYOUvSsJLrCeEHnDtDb5-45" value="General Disk Load" style="html=1;dashed=0;whiteSpace=wrap;container=0;" parent="U913wE_NcPpKhsggZSmQ-5" vertex="1">
          <mxGeometry x="13" y="253" width="50" height="50" as="geometry" />
        </mxCell>
        <mxCell id="kYOUvSsJLrCeEHnDtDb5-51" style="edgeStyle=orthogonalEdgeStyle;rounded=0;orthogonalLoop=1;jettySize=auto;html=1;exitX=1;exitY=0.5;exitDx=0;exitDy=0;entryX=0;entryY=0.5;entryDx=0;entryDy=0;" parent="U913wE_NcPpKhsggZSmQ-5" source="kYOUvSsJLrCeEHnDtDb5-46" target="kYOUvSsJLrCeEHnDtDb5-47" edge="1">
          <mxGeometry relative="1" as="geometry" />
        </mxCell>
        <mxCell id="kYOUvSsJLrCeEHnDtDb5-46" value="Random Write" style="html=1;dashed=0;whiteSpace=wrap;container=0;" parent="U913wE_NcPpKhsggZSmQ-5" vertex="1">
          <mxGeometry x="80" y="253" width="50" height="50" as="geometry" />
        </mxCell>
        <mxCell id="Xaint8aCtcgKNCO9s2cp-3" style="edgeStyle=orthogonalEdgeStyle;rounded=0;orthogonalLoop=1;jettySize=auto;html=1;exitX=1;exitY=0.5;exitDx=0;exitDy=0;entryX=0;entryY=0.5;entryDx=0;entryDy=0;" edge="1" parent="U913wE_NcPpKhsggZSmQ-5" source="kYOUvSsJLrCeEHnDtDb5-47" target="Xaint8aCtcgKNCO9s2cp-1">
          <mxGeometry relative="1" as="geometry" />
        </mxCell>
        <mxCell id="kYOUvSsJLrCeEHnDtDb5-47" value="Sequential Write" style="html=1;dashed=0;whiteSpace=wrap;container=0;fontSize=10;" parent="U913wE_NcPpKhsggZSmQ-5" vertex="1">
          <mxGeometry x="145" y="253" width="50" height="50" as="geometry" />
        </mxCell>
        <mxCell id="kYOUvSsJLrCeEHnDtDb5-56" value="TCP Stream" style="html=1;dashed=0;whiteSpace=wrap;container=0;" parent="U913wE_NcPpKhsggZSmQ-5" vertex="1">
          <mxGeometry x="140" y="352" width="60" height="50" as="geometry" />
        </mxCell>
        <mxCell id="kYOUvSsJLrCeEHnDtDb5-64" style="edgeStyle=orthogonalEdgeStyle;rounded=0;orthogonalLoop=1;jettySize=auto;html=1;exitX=0.5;exitY=1;exitDx=0;exitDy=0;entryX=0.5;entryY=0;entryDx=0;entryDy=0;" parent="U913wE_NcPpKhsggZSmQ-5" source="kYOUvSsJLrCeEHnDtDb5-58" target="kYOUvSsJLrCeEHnDtDb5-49" edge="1">
          <mxGeometry relative="1" as="geometry" />
        </mxCell>
        <mxCell id="kYOUvSsJLrCeEHnDtDb5-58" value="&lt;div&gt;&lt;b&gt;Memory Tests&lt;/b&gt;&lt;/div&gt;" style="html=1;dashed=0;whiteSpace=wrap;shadow=0;verticalAlign=top;fontSize=12;container=0;" parent="U913wE_NcPpKhsggZSmQ-5" vertex="1">
          <mxGeometry x="125" y="130" width="90" height="80" as="geometry" />
        </mxCell>
        <mxCell id="kYOUvSsJLrCeEHnDtDb5-59" value="Random Allocation" style="html=1;dashed=0;whiteSpace=wrap;container=0;" parent="U913wE_NcPpKhsggZSmQ-5" vertex="1">
          <mxGeometry x="140" y="155" width="60" height="50" as="geometry" />
        </mxCell>
        <mxCell id="kYOUvSsJLrCeEHnDtDb5-66" value="Process Creation Stress" style="html=1;dashed=0;whiteSpace=wrap;container=0;" parent="U913wE_NcPpKhsggZSmQ-5" vertex="1">
          <mxGeometry x="140" y="453" width="60" height="50" as="geometry" />
        </mxCell>
        <mxCell id="Xaint8aCtcgKNCO9s2cp-4" style="edgeStyle=orthogonalEdgeStyle;rounded=0;orthogonalLoop=1;jettySize=auto;html=1;exitX=1;exitY=0.5;exitDx=0;exitDy=0;entryX=0;entryY=0.5;entryDx=0;entryDy=0;" edge="1" parent="U913wE_NcPpKhsggZSmQ-5" source="Xaint8aCtcgKNCO9s2cp-1" target="Xaint8aCtcgKNCO9s2cp-2">
          <mxGeometry relative="1" as="geometry" />
        </mxCell>
        <mxCell id="Xaint8aCtcgKNCO9s2cp-1" value="Random Read" style="html=1;dashed=0;whiteSpace=wrap;container=0;" vertex="1" parent="U913wE_NcPpKhsggZSmQ-5">
          <mxGeometry x="210" y="253" width="50" height="50" as="geometry" />
        </mxCell>
        <mxCell id="Xaint8aCtcgKNCO9s2cp-2" value="Sequential Read" style="html=1;dashed=0;whiteSpace=wrap;container=0;fontSize=10;" vertex="1" parent="U913wE_NcPpKhsggZSmQ-5">
          <mxGeometry x="277" y="253" width="50" height="50" as="geometry" />
        </mxCell>
        <mxCell id="U913wE_NcPpKhsggZSmQ-16" style="edgeStyle=orthogonalEdgeStyle;rounded=0;orthogonalLoop=1;jettySize=auto;html=1;exitX=0.5;exitY=0;exitDx=0;exitDy=0;entryX=0.5;entryY=0;entryDx=0;entryDy=0;" parent="1" source="kYOUvSsJLrCeEHnDtDb5-77" target="U913wE_NcPpKhsggZSmQ-15" edge="1">
          <mxGeometry relative="1" as="geometry" />
        </mxCell>
        <mxCell id="kYOUvSsJLrCeEHnDtDb5-77" value="&lt;b&gt;Parallel&amp;nbsp;Tests&lt;/b&gt;" style="rounded=1;whiteSpace=wrap;html=1;absoluteArcSize=1;arcSize=14;strokeWidth=1;dashed=1;dashPattern=8 8;verticalAlign=top;container=0;fillColor=default;strokeColor=default;align=center;fontFamily=Helvetica;fontSize=12;fontColor=default;" parent="1" vertex="1">
          <mxGeometry x="660" y="250" width="270" height="520" as="geometry" />
        </mxCell>
        <mxCell id="kYOUvSsJLrCeEHnDtDb5-84" value="Cache Stress" style="html=1;dashed=0;whiteSpace=wrap;container=0;" parent="1" vertex="1">
          <mxGeometry x="710" y="294" width="60" height="50" as="geometry" />
        </mxCell>
        <mxCell id="kYOUvSsJLrCeEHnDtDb5-85" value="Floating Point Stress" style="html=1;dashed=0;whiteSpace=wrap;container=0;" parent="1" vertex="1">
          <mxGeometry x="780" y="336" width="60" height="50" as="geometry" />
        </mxCell>
        <mxCell id="kYOUvSsJLrCeEHnDtDb5-86" value="&lt;div&gt;Pipe Stress&lt;/div&gt;" style="html=1;dashed=0;whiteSpace=wrap;container=0;" parent="1" vertex="1">
          <mxGeometry x="860" y="491" width="60" height="50" as="geometry" />
        </mxCell>
        <mxCell id="kYOUvSsJLrCeEHnDtDb5-88" value="Random Write" style="html=1;dashed=0;whiteSpace=wrap;container=0;" parent="1" vertex="1">
          <mxGeometry x="780" y="451" width="60" height="50" as="geometry" />
        </mxCell>
        <mxCell id="kYOUvSsJLrCeEHnDtDb5-89" value="Sequential Write" style="html=1;dashed=0;whiteSpace=wrap;container=0;" parent="1" vertex="1">
          <mxGeometry x="775" y="561" width="60" height="50" as="geometry" />
        </mxCell>
        <mxCell id="kYOUvSsJLrCeEHnDtDb5-90" value="TCP Stream" style="html=1;dashed=0;whiteSpace=wrap;container=0;" parent="1" vertex="1">
          <mxGeometry x="705" y="523" width="60" height="50" as="geometry" />
        </mxCell>
        <mxCell id="kYOUvSsJLrCeEHnDtDb5-131" value="" style="html=1;points=[];perimeter=orthogonalPerimeter;fillColor=strokeColor;strokeWidth=1;container=0;" parent="1" vertex="1">
          <mxGeometry x="660" y="303" width="5" height="427" as="geometry" />
        </mxCell>
        <mxCell id="kYOUvSsJLrCeEHnDtDb5-132" value="General CPU Load" style="html=1;dashed=0;whiteSpace=wrap;container=0;" parent="1" vertex="1">
          <mxGeometry x="705" y="411" width="60" height="50" as="geometry" />
        </mxCell>
        <mxCell id="kYOUvSsJLrCeEHnDtDb5-133" value="General Disk Load" style="html=1;dashed=0;whiteSpace=wrap;container=0;" parent="1" vertex="1">
          <mxGeometry x="705" y="627" width="60" height="50" as="geometry" />
        </mxCell>
        <mxCell id="kYOUvSsJLrCeEHnDtDb5-136" value="" style="edgeStyle=orthogonalEdgeStyle;rounded=0;orthogonalLoop=1;jettySize=auto;html=1;exitX=0.88;exitY=0.235;exitDx=0;exitDy=0;entryX=0;entryY=0.5;entryDx=0;entryDy=0;exitPerimeter=0;" parent="1" source="kYOUvSsJLrCeEHnDtDb5-131" target="kYOUvSsJLrCeEHnDtDb5-91" edge="1">
          <mxGeometry relative="1" as="geometry">
            <mxPoint x="664" y="382" as="sourcePoint" />
            <mxPoint x="890" y="383.5" as="targetPoint" />
            <Array as="points" />
          </mxGeometry>
        </mxCell>
        <mxCell id="kYOUvSsJLrCeEHnDtDb5-91" value="Random Allocation" style="html=1;dashed=0;whiteSpace=wrap;container=0;" parent="1" vertex="1">
          <mxGeometry x="860" y="378" width="60" height="50" as="geometry" />
        </mxCell>
        <mxCell id="kYOUvSsJLrCeEHnDtDb5-170" style="edgeStyle=orthogonalEdgeStyle;rounded=0;orthogonalLoop=1;jettySize=auto;html=1;exitX=0;exitY=0.5;exitDx=0;exitDy=0;entryX=0.533;entryY=0.519;entryDx=0;entryDy=0;entryPerimeter=0;startArrow=classic;startFill=1;endArrow=none;endFill=0;" parent="1" source="kYOUvSsJLrCeEHnDtDb5-86" edge="1">
          <mxGeometry relative="1" as="geometry">
            <mxPoint x="662.665" y="515.6129999999998" as="targetPoint" />
          </mxGeometry>
        </mxCell>
        <mxCell id="kYOUvSsJLrCeEHnDtDb5-172" style="edgeStyle=orthogonalEdgeStyle;rounded=0;orthogonalLoop=1;jettySize=auto;html=1;exitX=0;exitY=0.5;exitDx=0;exitDy=0;entryX=0.948;entryY=0.038;entryDx=0;entryDy=0;entryPerimeter=0;startArrow=classic;startFill=1;endArrow=none;endFill=0;" parent="1" source="kYOUvSsJLrCeEHnDtDb5-84" target="kYOUvSsJLrCeEHnDtDb5-131" edge="1">
          <mxGeometry relative="1" as="geometry" />
        </mxCell>
        <mxCell id="U913wE_NcPpKhsggZSmQ-9" value="&lt;div&gt;&lt;b&gt;Load Coordinator&lt;/b&gt;&lt;/div&gt;" style="rounded=1;whiteSpace=wrap;html=1;dashed=1;dashPattern=8 8;strokeColor=default;strokeWidth=1;align=center;verticalAlign=top;arcSize=14;absoluteArcSize=1;fontFamily=Helvetica;fontSize=12;fontColor=default;fillColor=default;shadow=0;" parent="1" vertex="1">
          <mxGeometry x="220" y="-90" width="720" height="30" as="geometry" />
        </mxCell>
        <mxCell id="U913wE_NcPpKhsggZSmQ-17" style="edgeStyle=orthogonalEdgeStyle;rounded=0;orthogonalLoop=1;jettySize=auto;html=1;exitX=0.5;exitY=1;exitDx=0;exitDy=0;entryX=0.799;entryY=1.017;entryDx=0;entryDy=0;entryPerimeter=0;" parent="1" source="U913wE_NcPpKhsggZSmQ-15" target="U913wE_NcPpKhsggZSmQ-9" edge="1">
          <mxGeometry relative="1" as="geometry">
            <mxPoint x="795" y="-90" as="targetPoint" />
            <Array as="points" />
          </mxGeometry>
        </mxCell>
        <mxCell id="U913wE_NcPpKhsggZSmQ-15" value="&lt;b&gt;Set Next Device&lt;/b&gt;" style="shape=ellipse;html=1;dashed=0;whiteSpace=wrap;perimeter=ellipsePerimeter;direction=west;" parent="1" vertex="1">
          <mxGeometry x="735" y="90" width="120" height="60" as="geometry" />
        </mxCell>
        <mxCell id="Hkc-mEiplMsApQmfdria-4" style="edgeStyle=orthogonalEdgeStyle;rounded=0;orthogonalLoop=1;jettySize=auto;html=1;exitX=1;exitY=0.5;exitDx=0;exitDy=0;entryX=0;entryY=0.5;entryDx=0;entryDy=0;" parent="1" source="kYOUvSsJLrCeEHnDtDb5-153" target="kYOUvSsJLrCeEHnDtDb5-154" edge="1">
          <mxGeometry relative="1" as="geometry" />
        </mxCell>
        <mxCell id="kYOUvSsJLrCeEHnDtDb5-153" value="&lt;b&gt;Randomize&lt;/b&gt;&lt;br&gt;Stress duration&lt;br&gt;Sleep duration" style="shape=ellipse;html=1;dashed=0;whiteSpace=wrap;perimeter=ellipsePerimeter;direction=west;" parent="1" vertex="1">
          <mxGeometry x="480" y="170" width="120" height="60" as="geometry" />
        </mxCell>
        <mxCell id="Hkc-mEiplMsApQmfdria-5" style="edgeStyle=orthogonalEdgeStyle;rounded=0;orthogonalLoop=1;jettySize=auto;html=1;exitX=0.5;exitY=0;exitDx=0;exitDy=0;entryX=0.5;entryY=0;entryDx=0;entryDy=0;" parent="1" source="kYOUvSsJLrCeEHnDtDb5-154" target="kYOUvSsJLrCeEHnDtDb5-71" edge="1">
          <mxGeometry relative="1" as="geometry" />
        </mxCell>
        <mxCell id="kYOUvSsJLrCeEHnDtDb5-154" value="&lt;div&gt;&lt;b&gt;Randomize&amp;nbsp;&lt;/b&gt;&lt;br&gt;Worker Counts&lt;br&gt;Resources Sizes&lt;/div&gt;" style="shape=ellipse;html=1;dashed=0;whiteSpace=wrap;perimeter=ellipsePerimeter;direction=west;" parent="1" vertex="1">
          <mxGeometry x="340" y="170" width="120" height="60" as="geometry" />
        </mxCell>
        <mxCell id="U913wE_NcPpKhsggZSmQ-21" value="&lt;div&gt;Wait&lt;/div&gt;" style="ellipse;whiteSpace=wrap;html=1;aspect=fixed;" parent="1" vertex="1">
          <mxGeometry x="280" y="50" width="30" height="30" as="geometry" />
        </mxCell>
        <mxCell id="Hkc-mEiplMsApQmfdria-3" style="edgeStyle=orthogonalEdgeStyle;rounded=0;orthogonalLoop=1;jettySize=auto;html=1;exitX=0.5;exitY=1;exitDx=0;exitDy=0;entryX=0.5;entryY=1;entryDx=0;entryDy=0;" parent="1" source="U913wE_NcPpKhsggZSmQ-19" target="kYOUvSsJLrCeEHnDtDb5-153" edge="1">
          <mxGeometry relative="1" as="geometry" />
        </mxCell>
        <mxCell id="U913wE_NcPpKhsggZSmQ-19" value="True" style="shape=rhombus;html=1;dashed=0;whiteSpace=wrap;perimeter=rhombusPerimeter;" parent="1" vertex="1">
          <mxGeometry x="515" y="105" width="50" height="30" as="geometry" />
        </mxCell>
        <mxCell id="U913wE_NcPpKhsggZSmQ-60" style="edgeStyle=orthogonalEdgeStyle;rounded=0;orthogonalLoop=1;jettySize=auto;html=1;exitX=0.5;exitY=1;exitDx=0;exitDy=0;exitPerimeter=0;entryX=1;entryY=0.5;entryDx=0;entryDy=0;" parent="1" source="U913wE_NcPpKhsggZSmQ-26" target="U913wE_NcPpKhsggZSmQ-32" edge="1">
          <mxGeometry relative="1" as="geometry" />
        </mxCell>
        <mxCell id="U913wE_NcPpKhsggZSmQ-63" style="edgeStyle=orthogonalEdgeStyle;rounded=0;orthogonalLoop=1;jettySize=auto;html=1;exitX=0.5;exitY=1;exitDx=0;exitDy=0;exitPerimeter=0;entryX=0;entryY=0.5;entryDx=0;entryDy=0;" parent="1" source="U913wE_NcPpKhsggZSmQ-26" target="U913wE_NcPpKhsggZSmQ-19" edge="1">
          <mxGeometry relative="1" as="geometry" />
        </mxCell>
        <mxCell id="Hkc-mEiplMsApQmfdria-7" style="edgeStyle=orthogonalEdgeStyle;rounded=0;orthogonalLoop=1;jettySize=auto;html=1;exitX=0.5;exitY=0;exitDx=0;exitDy=0;exitPerimeter=0;entryX=0.25;entryY=1;entryDx=0;entryDy=0;startArrow=classic;startFill=1;endArrow=none;endFill=0;" parent="1" source="U913wE_NcPpKhsggZSmQ-26" target="U913wE_NcPpKhsggZSmQ-9" edge="1">
          <mxGeometry relative="1" as="geometry" />
        </mxCell>
        <mxCell id="U913wE_NcPpKhsggZSmQ-26" value="&lt;b&gt;Active Device Check&lt;/b&gt;" style="strokeWidth=2;html=1;shape=mxgraph.flowchart.decision;whiteSpace=wrap;fontSize=11;align=center;" parent="1" vertex="1">
          <mxGeometry x="350" y="30" width="100" height="70" as="geometry" />
        </mxCell>
        <mxCell id="U913wE_NcPpKhsggZSmQ-61" style="edgeStyle=orthogonalEdgeStyle;rounded=0;orthogonalLoop=1;jettySize=auto;html=1;exitX=0.5;exitY=0;exitDx=0;exitDy=0;entryX=0.5;entryY=1;entryDx=0;entryDy=0;" parent="1" source="U913wE_NcPpKhsggZSmQ-32" target="U913wE_NcPpKhsggZSmQ-21" edge="1">
          <mxGeometry relative="1" as="geometry" />
        </mxCell>
        <mxCell id="U913wE_NcPpKhsggZSmQ-32" value="False" style="shape=rhombus;html=1;dashed=0;whiteSpace=wrap;perimeter=rhombusPerimeter;" parent="1" vertex="1">
          <mxGeometry x="270" y="105" width="50" height="30" as="geometry" />
        </mxCell>
        <mxCell id="U913wE_NcPpKhsggZSmQ-62" style="edgeStyle=orthogonalEdgeStyle;rounded=0;orthogonalLoop=1;jettySize=auto;html=1;exitX=1;exitY=0.5;exitDx=0;exitDy=0;entryX=0;entryY=0.5;entryDx=0;entryDy=0;entryPerimeter=0;" parent="1" source="U913wE_NcPpKhsggZSmQ-21" target="U913wE_NcPpKhsggZSmQ-26" edge="1">
          <mxGeometry relative="1" as="geometry" />
        </mxCell>
        <mxCell id="Xaint8aCtcgKNCO9s2cp-5" value="Sequential Read" style="html=1;dashed=0;whiteSpace=wrap;container=0;" vertex="1" parent="1">
          <mxGeometry x="850" y="596" width="60" height="50" as="geometry" />
        </mxCell>
        <mxCell id="kYOUvSsJLrCeEHnDtDb5-92" value="Process Creation Stress" style="html=1;dashed=0;whiteSpace=wrap;container=0;" parent="1" vertex="1">
          <mxGeometry x="775" y="660" width="60" height="50" as="geometry" />
        </mxCell>
        <mxCell id="Xaint8aCtcgKNCO9s2cp-8" value="&lt;div&gt;Random Read&lt;/div&gt;" style="html=1;dashed=0;whiteSpace=wrap;container=0;" vertex="1" parent="1">
          <mxGeometry x="850" y="690" width="60" height="50" as="geometry" />
        </mxCell>
        <mxCell id="Xaint8aCtcgKNCO9s2cp-10" style="edgeStyle=orthogonalEdgeStyle;rounded=0;orthogonalLoop=1;jettySize=auto;html=1;exitX=0;exitY=0.5;exitDx=0;exitDy=0;entryX=1.067;entryY=0.136;entryDx=0;entryDy=0;entryPerimeter=0;startArrow=classic;startFill=1;endArrow=none;endFill=0;" edge="1" parent="1" source="kYOUvSsJLrCeEHnDtDb5-85" target="kYOUvSsJLrCeEHnDtDb5-131">
          <mxGeometry relative="1" as="geometry" />
        </mxCell>
        <mxCell id="Xaint8aCtcgKNCO9s2cp-11" style="edgeStyle=orthogonalEdgeStyle;rounded=0;orthogonalLoop=1;jettySize=auto;html=1;exitX=0;exitY=0.5;exitDx=0;exitDy=0;entryX=1.067;entryY=0.311;entryDx=0;entryDy=0;entryPerimeter=0;startArrow=classic;startFill=1;endArrow=none;endFill=0;" edge="1" parent="1" source="kYOUvSsJLrCeEHnDtDb5-132" target="kYOUvSsJLrCeEHnDtDb5-131">
          <mxGeometry relative="1" as="geometry" />
        </mxCell>
        <mxCell id="Xaint8aCtcgKNCO9s2cp-12" style="edgeStyle=orthogonalEdgeStyle;rounded=0;orthogonalLoop=1;jettySize=auto;html=1;exitX=0;exitY=0.5;exitDx=0;exitDy=0;entryX=1.067;entryY=0.575;entryDx=0;entryDy=0;entryPerimeter=0;startArrow=classic;startFill=1;endArrow=none;endFill=0;" edge="1" parent="1" source="kYOUvSsJLrCeEHnDtDb5-90" target="kYOUvSsJLrCeEHnDtDb5-131">
          <mxGeometry relative="1" as="geometry" />
        </mxCell>
        <mxCell id="Xaint8aCtcgKNCO9s2cp-13" style="edgeStyle=orthogonalEdgeStyle;rounded=0;orthogonalLoop=1;jettySize=auto;html=1;exitX=0;exitY=0.5;exitDx=0;exitDy=0;entryX=1;entryY=0.663;entryDx=0;entryDy=0;entryPerimeter=0;startArrow=classic;startFill=1;endArrow=none;endFill=0;" edge="1" parent="1" source="kYOUvSsJLrCeEHnDtDb5-89" target="kYOUvSsJLrCeEHnDtDb5-131">
          <mxGeometry relative="1" as="geometry" />
        </mxCell>
        <mxCell id="Xaint8aCtcgKNCO9s2cp-15" style="edgeStyle=orthogonalEdgeStyle;rounded=0;orthogonalLoop=1;jettySize=auto;html=1;exitX=0;exitY=0.5;exitDx=0;exitDy=0;entryX=0.791;entryY=0.965;entryDx=0;entryDy=0;entryPerimeter=0;startArrow=classic;startFill=1;endArrow=none;endFill=0;" edge="1" parent="1" source="Xaint8aCtcgKNCO9s2cp-8" target="kYOUvSsJLrCeEHnDtDb5-131">
          <mxGeometry relative="1" as="geometry" />
        </mxCell>
        <mxCell id="Xaint8aCtcgKNCO9s2cp-16" style="edgeStyle=orthogonalEdgeStyle;rounded=0;orthogonalLoop=1;jettySize=auto;html=1;exitX=0;exitY=0.5;exitDx=0;exitDy=0;entryX=0.883;entryY=0.895;entryDx=0;entryDy=0;entryPerimeter=0;startArrow=classic;startFill=1;endArrow=none;endFill=0;" edge="1" parent="1" source="kYOUvSsJLrCeEHnDtDb5-92" target="kYOUvSsJLrCeEHnDtDb5-131">
          <mxGeometry relative="1" as="geometry" />
        </mxCell>
        <mxCell id="Xaint8aCtcgKNCO9s2cp-17" style="edgeStyle=orthogonalEdgeStyle;rounded=0;orthogonalLoop=1;jettySize=auto;html=1;exitX=0;exitY=0.5;exitDx=0;exitDy=0;entryX=1.021;entryY=0.746;entryDx=0;entryDy=0;entryPerimeter=0;startArrow=classic;startFill=1;endArrow=none;endFill=0;" edge="1" parent="1" source="Xaint8aCtcgKNCO9s2cp-5" target="kYOUvSsJLrCeEHnDtDb5-131">
          <mxGeometry relative="1" as="geometry" />
        </mxCell>
        <mxCell id="Xaint8aCtcgKNCO9s2cp-18" style="edgeStyle=orthogonalEdgeStyle;rounded=0;orthogonalLoop=1;jettySize=auto;html=1;exitX=0;exitY=0.5;exitDx=0;exitDy=0;entryX=0.929;entryY=0.825;entryDx=0;entryDy=0;entryPerimeter=0;startArrow=classic;startFill=1;endArrow=none;endFill=0;" edge="1" parent="1" source="kYOUvSsJLrCeEHnDtDb5-133" target="kYOUvSsJLrCeEHnDtDb5-131">
          <mxGeometry relative="1" as="geometry">
            <Array as="points">
              <mxPoint x="665" y="652" />
            </Array>
          </mxGeometry>
        </mxCell>
        <mxCell id="Xaint8aCtcgKNCO9s2cp-19" style="edgeStyle=orthogonalEdgeStyle;rounded=0;orthogonalLoop=1;jettySize=auto;html=1;exitX=0;exitY=0.5;exitDx=0;exitDy=0;entryX=1.097;entryY=0.405;entryDx=0;entryDy=0;entryPerimeter=0;startArrow=classic;startFill=1;endArrow=none;endFill=0;" edge="1" parent="1" source="kYOUvSsJLrCeEHnDtDb5-88" target="kYOUvSsJLrCeEHnDtDb5-131">
          <mxGeometry relative="1" as="geometry" />
        </mxCell>
      </root>
    </mxGraphModel>
  </diagram>
</mxfile>
